<svg version="1.1" id="Layer_1" xmlns="http://www.w3.org/2000/svg" xmlns:xlink="http://www.w3.org/1999/xlink" x="0px" y="0px"
	 width="100%" viewBox="0 0 512 512" enable-background="new 0 0 512 512" xml:space="preserve">
<path fill="#000000" opacity="1.000000" stroke="none" 
	d="
M276.000000,513.000000 
	C184.022324,513.000000 92.544647,513.000000 1.033484,513.000000 
	C1.033484,342.397308 1.033484,171.794586 1.033484,1.095938 
	C171.561035,1.095938 342.122131,1.095938 512.841614,1.095938 
	C512.841614,171.666550 512.841614,342.333252 512.841614,513.000000 
	C434.127899,513.000000 355.313934,513.000000 276.000000,513.000000 
M223.993393,385.247375 
	C223.151428,379.803223 223.445923,373.842896 221.252228,369.012634 
	C214.925461,355.081818 201.809708,348.760071 188.705154,343.090973 
	C170.689819,335.297516 151.416855,332.789490 132.022568,329.963287 
	C132.015854,324.465088 131.780762,318.955200 132.060593,313.471619 
	C132.405777,306.707306 135.233841,301.122986 141.924774,298.724976 
	C145.268341,297.526611 149.044342,297.073151 152.625793,297.068451 
	C222.937393,296.976410 293.249146,297.000031 363.560883,297.000397 
	C364.393951,297.000427 365.232635,296.943268 366.059235,297.017853 
	C376.919861,297.997528 385.132385,302.907288 384.061554,315.882843 
	C383.651733,320.848541 383.966461,325.874084 383.079163,330.984406 
	C375.154541,331.986908 367.210297,332.856232 359.309204,334.018524 
	C340.698334,336.756378 323.051697,342.176910 307.322388,352.926331 
	C295.791687,360.806458 288.151672,370.631897 290.061584,386.566223 
	C290.040985,407.210693 289.909851,427.856262 290.107849,448.498627 
	C290.141083,451.965790 291.100555,455.634399 292.486389,458.840698 
	C297.635559,470.753906 308.103790,477.278595 319.083679,482.345184 
	C343.077606,493.416931 368.509399,498.073822 395.894684,496.967590 
	C407.495270,495.989929 419.150421,495.433716 430.684265,493.940521 
	C450.332092,491.396820 468.605927,484.791046 484.520416,472.769318 
	C491.596741,467.423920 497.573792,460.305939 497.818115,451.179199 
	C498.396729,429.565094 497.915924,407.922607 497.921875,385.318420 
	C499.553558,374.260498 495.427490,365.051483 487.412231,358.085419 
	C470.969879,343.795380 450.884888,337.565582 429.831696,334.019470 
	C422.613159,332.803619 415.336273,331.934174 408.029419,329.982513 
	C408.019409,324.157623 408.020355,318.332672 407.997467,312.507812 
	C407.914185,291.312073 390.573975,274.003296 369.421021,274.001343 
	C338.298828,273.998474 307.176666,274.006256 276.054474,273.989014 
	C274.140778,273.987946 272.227234,273.807709 270.069458,273.698456 
	C270.069458,263.751648 270.069458,254.445709 270.992493,245.032135 
	C296.317444,245.028427 321.643646,245.162491 346.966522,244.929810 
	C353.796631,244.867065 360.713440,244.204407 367.423889,242.935928 
	C393.052612,238.091339 411.802399,223.582642 423.977051,200.764252 
	C432.586670,184.627625 434.912292,167.307159 432.055359,149.201111 
	C428.848236,128.875717 419.506470,112.237946 403.654663,99.024483 
	C388.189941,86.133675 370.506409,79.865097 350.508453,80.065285 
	C347.034790,80.100067 345.466705,78.977173 343.899628,75.857994 
	C335.939087,60.012905 324.718109,46.773506 310.121124,36.678753 
	C291.479492,23.786858 271.028503,16.234034 247.060577,17.013102 
	C241.645828,17.341455 236.064484,16.948303 230.851837,18.151936 
	C220.742096,20.486341 210.403214,22.711102 200.950027,26.806515 
	C185.394974,33.545452 172.441086,44.150551 161.844238,57.579464 
	C151.492111,70.698273 144.489929,85.269768 140.823196,101.587547 
	C140.245895,104.156624 141.350555,108.014389 136.522324,109.111275 
	C117.995399,113.320251 103.550064,123.391045 93.565201,139.828781 
	C82.870316,157.435394 80.150551,176.026779 86.046249,195.719864 
	C95.470016,227.197617 121.534805,243.890396 148.535217,244.750061 
	C180.989868,245.783371 213.503815,244.954025 246.000549,245.877151 
	C246.000549,255.121902 246.000549,264.366669 246.000549,274.001526 
	C243.139694,274.001526 241.163559,274.001556 239.187424,274.001526 
	C208.045441,274.001221 176.903366,273.958160 145.761490,274.018188 
	C129.511688,274.049530 113.013313,286.695465 110.165932,302.651703 
	C108.522614,311.860504 109.273941,321.496643 108.086914,330.990265 
	C100.327927,331.990967 92.544334,332.832153 84.814857,334.024200 
	C66.314865,336.877228 48.701466,342.311249 33.083370,352.991333 
	C21.578773,360.858521 14.052903,370.924744 16.045034,386.818298 
	C16.029919,407.433868 15.917787,428.050262 16.098650,448.664124 
	C16.127567,451.959869 16.926905,455.491852 18.297466,458.490814 
	C24.242741,471.499939 35.775047,478.143646 48.148453,483.569489 
	C71.358429,493.747284 95.693039,497.944427 121.906967,496.979706 
	C133.488251,495.991669 145.123871,495.421143 156.638657,493.922241 
	C176.184738,491.377899 194.382111,484.878876 210.243835,472.903442 
	C217.455215,467.458954 223.551758,460.349487 223.803589,451.086884 
	C224.391235,429.471039 223.894516,407.825714 223.993393,385.247375 
z"/>
<path fill="#C4D3E4" opacity="1.000000" stroke="none" 
	d="
M247.981583,17.161829 
	C271.028503,16.234034 291.479492,23.786858 310.121124,36.678753 
	C324.718109,46.773506 335.939087,60.012905 343.899628,75.857994 
	C345.466705,78.977173 347.034790,80.100067 350.508453,80.065285 
	C370.506409,79.865097 388.189941,86.133675 403.654663,99.024483 
	C419.506470,112.237946 428.848236,128.875717 432.055359,149.201111 
	C434.912292,167.307159 432.586670,184.627625 423.977051,200.764252 
	C411.802399,223.582642 393.052612,238.091339 367.423889,242.935928 
	C360.713440,244.204407 353.796631,244.867065 346.966522,244.929810 
	C321.643646,245.162491 296.317444,245.028427 270.069946,244.968750 
	C262.088257,244.669876 255.029099,244.434402 247.978256,243.717834 
	C247.984909,167.878464 247.983246,92.520142 247.981583,17.161829 
z"/>
<path fill="#E8EDF2" opacity="1.000000" stroke="none" 
	d="
M247.521088,17.087465 
	C247.983246,92.520142 247.984909,167.878464 247.673309,243.729828 
	C246.904053,244.458969 246.448074,244.695068 245.992096,244.931152 
	C213.503815,244.954025 180.989868,245.783371 148.535217,244.750061 
	C121.534805,243.890396 95.470016,227.197617 86.046249,195.719864 
	C80.150551,176.026779 82.870316,157.435394 93.565201,139.828781 
	C103.550064,123.391045 117.995399,113.320251 136.522324,109.111275 
	C141.350555,108.014389 140.245895,104.156624 140.823196,101.587547 
	C144.489929,85.269768 151.492111,70.698273 161.844238,57.579464 
	C172.441086,44.150551 185.394974,33.545452 200.950027,26.806515 
	C210.403214,22.711102 220.742096,20.486341 230.851837,18.151936 
	C236.064484,16.948303 241.645828,17.341455 247.521088,17.087465 
M123.402283,125.822014 
	C122.281921,126.540512 121.139999,127.227699 120.044350,127.982079 
	C94.855309,145.325348 87.049644,177.169983 101.378845,203.809814 
	C103.591064,207.922607 107.015518,210.080612 111.457138,209.873856 
	C115.881569,209.667923 119.922470,207.455338 120.798325,202.936615 
	C121.433594,199.659119 121.006248,195.634018 119.617577,192.598923 
	C113.352959,178.906891 114.628036,166.133011 123.076035,153.887527 
	C127.324234,147.729706 133.755814,144.583313 140.187729,141.346771 
	C145.633072,138.606659 147.561218,133.154449 145.372177,127.856590 
	C143.156357,122.493919 137.457382,119.935158 131.777695,121.968132 
	C129.125122,122.917572 126.625122,124.293266 123.402283,125.822014 
z"/>
<path fill="#454545" opacity="1.000000" stroke="none" 
	d="
M245.996323,245.404160 
	C246.448074,244.695068 246.904053,244.458969 247.664978,244.210907 
	C255.029099,244.434402 262.088257,244.669876 269.608459,245.022568 
	C270.069458,254.445709 270.069458,263.751648 270.069458,273.698456 
	C272.227234,273.807709 274.140778,273.987946 276.054474,273.989014 
	C307.176666,274.006256 338.298828,273.998474 369.421021,274.001343 
	C390.573975,274.003296 407.914185,291.312073 407.997467,312.507812 
	C408.020355,318.332672 408.019409,324.157623 407.612244,330.616302 
	C403.116547,331.302429 399.038025,331.354797 394.548950,331.361572 
	C390.742615,331.168121 387.346832,331.020233 383.951019,330.872375 
	C383.966461,325.874084 383.651733,320.848541 384.061554,315.882843 
	C385.132385,302.907288 376.919861,297.997528 366.059235,297.017853 
	C365.232635,296.943268 364.393951,297.000427 363.560883,297.000397 
	C293.249146,297.000031 222.937393,296.976410 152.625793,297.068451 
	C149.044342,297.073151 145.268341,297.526611 141.924774,298.724976 
	C135.233841,301.122986 132.405777,306.707306 132.060593,313.471619 
	C131.780762,318.955200 132.015854,324.465088 131.590912,330.525116 
	C127.755211,331.198669 124.351151,331.310394 120.527466,331.365021 
	C116.387718,331.185394 112.667595,331.062927 108.947464,330.940430 
	C109.273941,321.496643 108.522614,311.860504 110.165932,302.651703 
	C113.013313,286.695465 129.511688,274.049530 145.761490,274.018188 
	C176.903366,273.958160 208.045441,274.001221 239.187424,274.001526 
	C241.163559,274.001556 243.139694,274.001526 246.000549,274.001526 
	C246.000549,264.366669 246.000549,255.121902 245.996323,245.404160 
z"/>
<path fill="#118BE1" opacity="1.000000" stroke="none" 
	d="
M394.962128,496.826111 
	C368.509399,498.073822 343.077606,493.416931 319.083679,482.345184 
	C308.103790,477.278595 297.635559,470.753906 292.486389,458.840698 
	C291.100555,455.634399 290.141083,451.965790 290.107849,448.498627 
	C289.909851,427.856262 290.040985,407.210693 290.345001,386.381531 
	C293.568665,397.656250 301.660126,404.920990 311.162201,410.813354 
	C326.811432,420.517578 344.177368,425.504517 362.236267,427.981995 
	C373.070770,429.468353 384.035126,430.007782 394.952087,431.443054 
	C394.962708,453.550873 394.962433,475.188507 394.962128,496.826111 
M306.574493,465.953522 
	C315.538818,470.959259 324.395569,476.174011 333.518982,480.870758 
	C337.319916,482.827545 341.062897,480.947449 342.381958,477.182159 
	C343.812347,473.099152 341.908417,470.498901 338.198425,468.901093 
	C334.837799,467.453796 331.378784,466.191223 328.147430,464.496033 
	C319.537109,459.978912 311.224274,455.262329 308.394958,444.672211 
	C307.947723,442.998199 303.825226,441.169525 301.661041,441.445404 
	C299.885284,441.671722 297.381561,444.785095 297.131042,446.852692 
	C296.177551,454.720490 300.980255,460.249908 306.574493,465.953522 
z"/>
<path fill="#FABB53" opacity="1.000000" stroke="none" 
	d="
M120.976944,496.831665 
	C95.693039,497.944427 71.358429,493.747284 48.148453,483.569489 
	C35.775047,478.143646 24.242741,471.499939 18.297466,458.490814 
	C16.926905,455.491852 16.127567,451.959869 16.098650,448.664124 
	C15.917787,428.050262 16.029919,407.433868 16.323978,386.628326 
	C18.792645,394.048981 22.832615,400.689362 29.408997,404.938446 
	C37.866955,410.403168 46.542423,415.895905 55.822895,419.648682 
	C76.575638,428.040527 98.548645,430.480530 120.866463,430.504517 
	C120.902100,430.661621 121.012459,430.967255 121.006233,431.437927 
	C120.992317,453.549622 120.984634,475.190643 120.976944,496.831665 
M25.774450,457.563934 
	C34.101353,470.577698 47.329411,476.483948 61.116184,481.191803 
	C62.967129,481.823822 67.316101,479.197601 68.293945,477.064850 
	C69.097954,475.311279 67.132721,471.610352 65.422577,469.599274 
	C64.089058,468.031006 61.198895,467.862213 59.108242,466.849121 
	C48.770889,461.839966 38.071594,457.349854 34.403336,444.652740 
	C33.920658,442.982056 30.096630,441.088501 28.123459,441.376434 
	C26.213631,441.655151 23.390060,444.544617 23.287979,446.414032 
	C23.099852,449.859100 24.611288,453.396942 25.774450,457.563934 
z"/>
<path fill="#0D6BC3" opacity="1.000000" stroke="none" 
	d="
M395.428406,496.896851 
	C394.962433,475.188507 394.962708,453.550873 394.965973,431.297394 
	C394.968933,430.681519 394.912964,430.394318 395.336639,430.556915 
	C400.399078,430.479126 405.040558,430.282166 409.676117,429.990784 
	C429.989838,428.713928 449.677399,424.641571 468.117554,415.827759 
	C481.374268,409.491455 492.977112,401.196808 497.863434,386.291595 
	C497.915924,407.922607 498.396729,429.565094 497.818115,451.179199 
	C497.573792,460.305939 491.596741,467.423920 484.520416,472.769318 
	C468.605927,484.791046 450.332092,491.396820 430.684265,493.940521 
	C419.150421,495.433716 407.495270,495.989929 395.428406,496.896851 
M451.143188,442.511902 
	C446.937744,447.612427 446.292908,452.063568 449.111938,456.533051 
	C451.827850,460.838959 456.940369,462.888367 461.551941,461.489594 
	C466.133148,460.099976 468.809052,456.901733 469.576080,452.297424 
	C470.328613,447.780029 468.462555,444.065338 464.734802,441.634583 
	C460.454559,438.843536 455.983032,439.082642 451.143188,442.511902 
M434.222382,456.813202 
	C432.724823,450.945801 429.395081,447.579773 424.273865,447.242401 
	C419.322113,446.916168 415.524780,449.103790 413.337036,453.566895 
	C411.222626,457.880310 411.956757,461.998077 415.061584,465.616974 
	C418.244568,469.327026 422.466034,470.190216 426.853577,468.755341 
	C432.000671,467.072052 434.466156,463.127777 434.222382,456.813202 
z"/>
<path fill="#F89944" opacity="1.000000" stroke="none" 
	d="
M121.441956,496.905701 
	C120.984634,475.190643 120.992317,453.549622 121.435081,431.400146 
	C125.848343,430.602692 129.822113,430.204193 133.805466,430.043182 
	C153.592896,429.243225 172.722717,425.277893 190.840561,417.301697 
	C205.400909,410.891602 218.540222,402.602417 223.837036,386.192352 
	C223.894516,407.825714 224.391235,429.471039 223.803589,451.086884 
	C223.551758,460.349487 217.455215,467.458954 210.243835,472.903442 
	C194.382111,484.878876 176.184738,491.377899 156.638657,493.922241 
	C145.123871,495.421143 133.488251,495.991669 121.441956,496.905701 
M174.478073,446.178406 
	C170.409225,454.956848 178.873474,463.795868 187.193481,461.592377 
	C192.064636,460.302277 195.509399,456.128967 195.752747,451.209198 
	C195.977768,446.659576 192.820190,441.949585 188.485168,440.368469 
	C183.328171,438.487549 178.721069,440.230042 174.478073,446.178406 
M157.617386,450.921570 
	C152.485748,446.632202 148.204178,446.010895 143.532928,448.877686 
	C139.566315,451.312042 137.421341,456.098816 138.462708,460.461121 
	C139.513901,464.864532 142.131454,467.977448 146.626938,468.982300 
	C151.202576,470.005066 155.342789,468.930939 158.171509,464.961945 
	C161.319580,460.544891 161.212601,455.968658 157.617386,450.921570 
z"/>
<path fill="#F9BB54" opacity="1.000000" stroke="none" 
	d="
M394.955017,430.827148 
	C384.035126,430.007782 373.070770,429.468353 362.236267,427.981995 
	C344.177368,425.504517 326.811432,420.517578 311.162201,410.813354 
	C301.660126,404.920990 293.568665,397.656250 290.399658,385.889221 
	C288.151672,370.631897 295.791687,360.806458 307.322388,352.926331 
	C323.051697,342.176910 340.698334,336.756378 359.309204,334.018524 
	C367.210297,332.856232 375.154541,331.986908 383.515076,330.928406 
	C387.346832,331.020233 390.742615,331.168121 394.552979,331.801147 
	C394.984863,337.806396 395.002197,343.326477 394.558533,348.900452 
	C388.291779,349.315430 382.442230,349.344360 376.688751,350.102509 
	C361.875336,352.054504 347.558685,355.656464 335.582733,365.274658 
	C324.066742,374.523376 323.900055,387.496735 335.591553,396.476990 
	C340.655090,400.366333 346.545898,403.449707 352.477844,405.882568 
	C366.048340,411.448029 380.479340,412.777588 395.005371,413.582184 
	C394.969269,419.492645 394.941132,424.943481 394.912964,430.394318 
	C394.912964,430.394318 394.968933,430.681519 394.955017,430.827148 
z"/>
<path fill="#E92A3B" opacity="1.000000" stroke="none" 
	d="
M120.830826,430.347382 
	C98.548645,430.480530 76.575638,428.040527 55.822895,419.648682 
	C46.542423,415.895905 37.866955,410.403168 29.408997,404.938446 
	C22.832615,400.689362 18.792645,394.048981 16.377003,386.154053 
	C14.052903,370.924744 21.578773,360.858521 33.083370,352.991333 
	C48.701466,342.311249 66.314865,336.877228 84.814857,334.024200 
	C92.544334,332.832153 100.327927,331.990967 108.517189,330.965332 
	C112.667595,331.062927 116.387718,331.185394 120.539528,331.799683 
	C120.987892,337.805939 121.004570,343.320404 120.561607,348.898193 
	C103.986259,349.061920 88.069969,350.895752 73.534050,358.164886 
	C67.179031,361.342957 61.248730,366.092896 56.365429,371.293274 
	C51.220596,376.772156 51.208862,385.031677 56.338512,390.528107 
	C61.205349,395.742981 67.122955,400.503296 73.465195,403.709503 
	C88.299362,411.208710 104.626312,412.689514 121.014481,413.591492 
	C120.948685,419.483154 120.889755,424.915283 120.830826,430.347382 
z"/>
<path fill="#F89945" opacity="1.000000" stroke="none" 
	d="
M395.019501,348.846588 
	C395.002197,343.326477 394.984863,337.806396 394.963501,331.846741 
	C399.038025,331.354797 403.116547,331.302429 407.640564,331.078278 
	C415.336273,331.934174 422.613159,332.803619 429.831696,334.019470 
	C450.884888,337.565582 470.969879,343.795380 487.412231,358.085419 
	C495.427490,365.051483 499.553558,374.260498 497.892639,385.804993 
	C492.977112,401.196808 481.374268,409.491455 468.117554,415.827759 
	C449.677399,424.641571 429.989838,428.713928 409.676117,429.990784 
	C405.040558,430.282166 400.399078,430.479126 395.336639,430.556915 
	C394.941132,424.943481 394.969269,419.492645 394.996033,413.508270 
	C394.994629,412.974731 394.942657,412.835052 395.404724,412.895020 
	C401.175781,412.627899 406.525269,412.607697 411.786072,411.914612 
	C425.928650,410.051331 439.599915,406.563904 451.225769,397.760986 
	C456.940796,393.433685 461.384430,388.144073 461.056000,380.232605 
	C460.748138,372.817596 456.440765,367.786438 450.874847,363.904022 
	C434.083069,352.190979 414.945465,348.930908 394.973633,349.063080 
	C395.000519,348.993866 395.019501,348.846588 395.019501,348.846588 
z"/>
<path fill="#D42132" opacity="1.000000" stroke="none" 
	d="
M121.021255,348.834839 
	C121.004570,343.320404 120.987892,337.805939 120.959152,331.856812 
	C124.351151,331.310394 127.755211,331.198669 131.614243,330.985931 
	C151.416855,332.789490 170.689819,335.297516 188.705154,343.090973 
	C201.809708,348.760071 214.925461,355.081818 221.252228,369.012634 
	C223.445923,373.842896 223.151428,379.803223 223.915222,385.719849 
	C218.540222,402.602417 205.400909,410.891602 190.840561,417.301697 
	C172.722717,425.277893 153.592896,429.243225 133.805466,430.043182 
	C129.822113,430.204193 125.848343,430.602692 121.441307,430.929504 
	C121.012459,430.967255 120.902100,430.661621 120.866463,430.504517 
	C120.889755,424.915283 120.948685,419.483154 120.983551,413.516052 
	C120.959488,412.981079 120.941986,412.819031 121.403549,412.893982 
	C131.403519,411.879089 141.082535,411.467377 150.444336,409.525970 
	C161.869934,407.156616 172.767746,402.900696 181.197693,394.241882 
	C189.275787,385.944397 189.387909,375.848511 181.159225,367.778320 
	C177.658585,364.345093 173.498489,361.287537 169.117859,359.102020 
	C153.995560,351.557556 137.808533,348.564972 120.954880,349.065918 
	C120.966270,348.986206 121.021255,348.834839 121.021255,348.834839 
z"/>
<path fill="#FFFFFF" opacity="1.000000" stroke="none" 
	d="
M123.729126,125.648895 
	C126.625122,124.293266 129.125122,122.917572 131.777695,121.968132 
	C137.457382,119.935158 143.156357,122.493919 145.372177,127.856590 
	C147.561218,133.154449 145.633072,138.606659 140.187729,141.346771 
	C133.755814,144.583313 127.324234,147.729706 123.076035,153.887527 
	C114.628036,166.133011 113.352959,178.906891 119.617577,192.598923 
	C121.006248,195.634018 121.433594,199.659119 120.798325,202.936615 
	C119.922470,207.455338 115.881569,209.667923 111.457138,209.873856 
	C107.015518,210.080612 103.591064,207.922607 101.378845,203.809814 
	C87.049644,177.169983 94.855309,145.325348 120.044350,127.982079 
	C121.139999,127.227699 122.281921,126.540512 123.729126,125.648895 
z"/>
<path fill="#4CB5FE" opacity="1.000000" stroke="none" 
	d="
M306.313690,465.711121 
	C300.980255,460.249908 296.177551,454.720490 297.131042,446.852692 
	C297.381561,444.785095 299.885284,441.671722 301.661041,441.445404 
	C303.825226,441.169525 307.947723,442.998199 308.394958,444.672211 
	C311.224274,455.262329 319.537109,459.978912 328.147430,464.496033 
	C331.378784,466.191223 334.837799,467.453796 338.198425,468.901093 
	C341.908417,470.498901 343.812347,473.099152 342.381958,477.182159 
	C341.062897,480.947449 337.319916,482.827545 333.518982,480.870758 
	C324.395569,476.174011 315.538818,470.959259 306.313690,465.711121 
z"/>
<path fill="#FFD67E" opacity="1.000000" stroke="none" 
	d="
M25.594479,457.230042 
	C24.611288,453.396942 23.099852,449.859100 23.287979,446.414032 
	C23.390060,444.544617 26.213631,441.655151 28.123459,441.376434 
	C30.096630,441.088501 33.920658,442.982056 34.403336,444.652740 
	C38.071594,457.349854 48.770889,461.839966 59.108242,466.849121 
	C61.198895,467.862213 64.089058,468.031006 65.422577,469.599274 
	C67.132721,471.610352 69.097954,475.311279 68.293945,477.064850 
	C67.316101,479.197601 62.967129,481.823822 61.116184,481.191803 
	C47.329411,476.483948 34.101353,470.577698 25.594479,457.230042 
z"/>
<path fill="#2B2D30" opacity="1.000000" stroke="none" 
	d="
M451.436768,442.265625 
	C455.983032,439.082642 460.454559,438.843536 464.734802,441.634583 
	C468.462555,444.065338 470.328613,447.780029 469.576080,452.297424 
	C468.809052,456.901733 466.133148,460.099976 461.551941,461.489594 
	C456.940369,462.888367 451.827850,460.838959 449.111938,456.533051 
	C446.292908,452.063568 446.937744,447.612427 451.436768,442.265625 
z"/>
<path fill="#E8ECF1" opacity="1.000000" stroke="none" 
	d="
M434.265320,457.231567 
	C434.466156,463.127777 432.000671,467.072052 426.853577,468.755341 
	C422.466034,470.190216 418.244568,469.327026 415.061584,465.616974 
	C411.956757,461.998077 411.222626,457.880310 413.337036,453.566895 
	C415.524780,449.103790 419.322113,446.916168 424.273865,447.242401 
	C429.395081,447.579773 432.724823,450.945801 434.265320,457.231567 
z"/>
<path fill="#126CC0" opacity="1.000000" stroke="none" 
	d="
M174.666855,445.850891 
	C178.721069,440.230042 183.328171,438.487549 188.485168,440.368469 
	C192.820190,441.949585 195.977768,446.659576 195.752747,451.209198 
	C195.509399,456.128967 192.064636,460.302277 187.193481,461.592377 
	C178.873474,463.795868 170.409225,454.956848 174.666855,445.850891 
z"/>
<path fill="#302E2D" opacity="1.000000" stroke="none" 
	d="
M157.853333,451.210693 
	C161.212601,455.968658 161.319580,460.544891 158.171509,464.961945 
	C155.342789,468.930939 151.202576,470.005066 146.626938,468.982300 
	C142.131454,467.977448 139.513901,464.864532 138.462708,460.461121 
	C137.421341,456.098816 139.566315,451.312042 143.532928,448.877686 
	C148.204178,446.010895 152.485748,446.632202 157.853333,451.210693 
z"/>
<path fill="#E8EDF1" opacity="1.000000" stroke="none" 
	d="
M395.003967,413.048645 
	C380.479340,412.777588 366.048340,411.448029 352.477844,405.882568 
	C346.545898,403.449707 340.655090,400.366333 335.591553,396.476990 
	C323.900055,387.496735 324.066742,374.523376 335.582733,365.274658 
	C347.558685,355.656464 361.875336,352.054504 376.688751,350.102509 
	C382.442230,349.344360 388.291779,349.315430 394.558533,348.900452 
	C395.019501,348.846588 395.000519,348.993866 394.983154,349.522461 
	C394.958099,370.979065 394.950378,391.907074 394.942657,412.835052 
	C394.942657,412.835052 394.994629,412.974731 395.003967,413.048645 
z"/>
<path fill="#E8ECF1" opacity="1.000000" stroke="none" 
	d="
M120.990417,413.056519 
	C104.626312,412.689514 88.299362,411.208710 73.465195,403.709503 
	C67.122955,400.503296 61.205349,395.742981 56.338512,390.528107 
	C51.208862,385.031677 51.220596,376.772156 56.365429,371.293274 
	C61.248730,366.092896 67.179031,361.342957 73.534050,358.164886 
	C88.069969,350.895752 103.986259,349.061920 120.561607,348.898193 
	C121.021255,348.834839 120.966270,348.986206 120.965988,349.524963 
	C120.957794,370.982147 120.949890,391.900604 120.941986,412.819031 
	C120.941986,412.819031 120.959488,412.981079 120.990417,413.056519 
z"/>
<path fill="#C4D3E3" opacity="1.000000" stroke="none" 
	d="
M395.404724,412.895020 
	C394.950378,391.907074 394.958099,370.979065 394.956299,349.591675 
	C414.945465,348.930908 434.083069,352.190979 450.874847,363.904022 
	C456.440765,367.786438 460.748138,372.817596 461.056000,380.232605 
	C461.384430,388.144073 456.940796,393.433685 451.225769,397.760986 
	C439.599915,406.563904 425.928650,410.051331 411.786072,411.914612 
	C406.525269,412.607697 401.175781,412.627899 395.404724,412.895020 
z"/>
<path fill="#C4D2E3" opacity="1.000000" stroke="none" 
	d="
M121.403549,412.893982 
	C120.949890,391.900604 120.957794,370.982147 120.954597,349.604675 
	C137.808533,348.564972 153.995560,351.557556 169.117859,359.102020 
	C173.498489,361.287537 177.658585,364.345093 181.159225,367.778320 
	C189.387909,375.848511 189.275787,385.944397 181.197693,394.241882 
	C172.767746,402.900696 161.869934,407.156616 150.444336,409.525970 
	C141.082535,411.467377 131.403519,411.879089 121.403549,412.893982 
z"/>
</svg>